<svg width="61" height="61" viewBox="0 0 61 61" fill="none" xmlns="http://www.w3.org/2000/svg">
<g clip-path="url(#clip0_49_2)">
<path fill-rule="evenodd" clip-rule="evenodd" d="M30.5 0C47.3451 0 61 13.9993 61 31.2714C61 45.0849 52.2709 56.8031 40.1593 60.9419C38.613 61.25 38.064 60.2734 38.064 59.4407C38.064 58.4098 38.1006 55.0428 38.1006 50.8582C38.1006 47.9424 37.1246 46.0393 36.0297 45.0694C42.822 44.2947 49.959 41.6501 49.959 29.6392C49.959 26.2232 48.7756 23.4357 46.8175 21.2458C47.1347 20.4558 48.1808 17.2751 46.5186 12.9685C46.5186 12.9685 43.9627 12.1305 38.1402 16.1748C35.7033 15.4825 33.0925 15.1341 30.5 15.1219C27.9075 15.1341 25.2998 15.4825 22.8659 16.1748C17.0373 12.1305 14.4753 12.9685 14.4753 12.9685C12.8192 17.2751 13.8653 20.4558 14.1795 21.2458C12.2305 23.4357 11.038 26.2232 11.038 29.6392C11.038 41.6196 18.1597 44.3048 24.9338 45.0947C24.0615 45.8755 23.2715 47.2529 22.997 49.2751C21.2585 50.0742 16.8421 51.4572 14.1215 46.6778C14.1215 46.6778 12.5081 43.6732 9.44585 43.4536C9.44585 43.4536 6.4721 43.4141 9.23845 45.3539C9.23845 45.3539 11.2362 46.3146 12.6239 49.9289C12.6239 49.9289 14.4143 55.5102 22.8994 53.6192C22.9147 56.2331 22.9421 58.6965 22.9421 59.4407C22.9421 60.2673 22.3809 61.2346 20.8589 60.9449C8.73824 56.8121 0 45.0879 0 31.2714C0 13.9993 13.6579 0 30.5 0Z" fill="#686868"/>
</g>
<defs>
<clipPath id="clip0_49_2">
<rect width="61" height="61" fill="white"/>
</clipPath>
</defs>
</svg>
