<svg width="637" height="541" viewBox="0 0 637 541" fill="none" xmlns="http://www.w3.org/2000/svg">
<g filter="url(#filter0_d_14_2)">
<circle cx="51" cy="419" r="15" fill="#A1D7E3"/>
</g>
<g filter="url(#filter1_d_14_2)">
<circle cx="51" cy="469" r="15" fill="#A1D7E3"/>
</g>
<g filter="url(#filter2_d_14_2)">
<circle cx="51" cy="519" r="15" fill="#A1D7E3"/>
</g>
<g filter="url(#filter3_d_14_2)">
<circle cx="118" cy="519" r="15" fill="#A1D7E3"/>
</g>
<g filter="url(#filter4_d_14_2)">
<circle cx="185" cy="519" r="15" fill="#A1D7E3"/>
</g>
<g filter="url(#filter5_d_14_2)">
<circle cx="252" cy="519" r="15" fill="#A1D7E3"/>
</g>
<g filter="url(#filter6_d_14_2)">
<circle cx="319" cy="519" r="15" fill="#A1D7E3"/>
</g>
<g filter="url(#filter7_d_14_2)">
<circle cx="252" cy="469" r="15" fill="#A1D7E3"/>
</g>
<g filter="url(#filter8_d_14_2)">
<circle cx="319" cy="469" r="15" fill="#A1D7E3"/>
</g>
<g filter="url(#filter9_d_14_2)">
<circle cx="118" cy="469" r="15" fill="#A1D7E3"/>
</g>
<g filter="url(#filter10_d_14_2)">
<circle cx="185" cy="469" r="15" fill="#A1D7E3"/>
</g>
<g filter="url(#filter11_d_14_2)">
<circle cx="252" cy="419" r="15" fill="#A1D7E3"/>
</g>
<g filter="url(#filter12_d_14_2)">
<circle cx="319" cy="419" r="15" fill="#A1D7E3"/>
</g>
<g filter="url(#filter13_d_14_2)">
<circle cx="185" cy="419" r="15" fill="#A1D7E3"/>
</g>
<g filter="url(#filter14_d_14_2)">
<circle cx="118" cy="419" r="15" fill="#A1D7E3"/>
</g>
<g clip-path="url(#clip0_14_2)" filter="url(#filter15_d_14_2)">
<path d="M370.391 80.5638C382.18 80.5638 391.737 71.0172 391.737 59.2408C391.737 47.4644 382.18 37.9178 370.391 37.9178C358.603 37.9178 349.046 47.4644 349.046 59.2408C349.046 71.0172 358.603 80.5638 370.391 80.5638Z" fill="#F2F2F2"/>
<path d="M535.972 397.021C567.699 372.881 582.853 332.315 573.366 293.618C573.131 292.656 572.882 291.697 572.62 290.74C566.331 267.77 550.77 245.938 528.092 238.599C509.05 232.436 488.265 237.175 468.4 234.724C429.403 229.913 399.17 198.393 377.897 165.391C356.624 132.389 340.275 95.4479 312.007 68.1834C265.413 23.2424 189.407 13.5665 131.637 42.8198C73.8667 72.0731 37.0679 136.974 38.6373 201.656C40.2067 266.338 78.6453 328.178 134.468 360.988C154.975 373.041 178.693 381.58 202.297 378.592C222.778 376 241.388 365.006 261.773 361.742C293.823 356.611 325.668 371.087 353.389 387.955C381.109 404.824 407.885 424.818 439.386 432.638C469.973 440.232 507.867 418.406 535.972 397.021Z" fill="#F2F2F2"/>
<path d="M490.388 44.178C489.693 43.7149 488.989 43.2756 488.294 42.8284C468.189 29.9837 446.64 19.5488 424.092 11.7393L418.864 83.7881H385.72V1.22181C383.634 0.790574 381.531 0.383293 379.429 -3.05176e-05V83.7881H340.041C318.358 83.7881 297.563 75.1835 282.23 59.867C266.898 44.5506 258.284 23.777 258.284 2.11633C256.174 2.57153 254.079 3.05859 251.985 3.57768V83.7882H219.904L214.924 15.0854C191.752 23.9627 169.754 35.6369 149.419 49.8481C149.068 50.0876 148.716 50.3352 148.372 50.5748C146.605 51.8126 144.863 53.0744 143.128 54.3521V329.219H237.675L236.005 306.1L226.811 179.164H411.949L402.756 306.1L401.085 329.219H494.585V46.9571C493.194 46.0148 491.795 45.0885 490.388 44.178ZM251.985 158.201H225.292L220.36 90.0811H251.985V158.201ZM379.429 158.201H334.597V156.851C334.597 156.202 334.469 155.56 334.22 154.961C333.972 154.361 333.607 153.817 333.147 153.359C332.688 152.9 332.142 152.537 331.542 152.289C330.941 152.042 330.298 151.915 329.649 151.916H310.159C309.51 151.916 308.867 152.043 308.268 152.291C307.668 152.539 307.124 152.903 306.665 153.361C306.206 153.819 305.842 154.363 305.594 154.962C305.346 155.561 305.218 156.203 305.218 156.851V158.201H258.284V90.0811H379.429V158.201ZM385.72 158.201V90.0811H418.408L413.476 158.201H385.72Z" fill="#3F3D56"/>
<path d="M4 346.821C10.9448 355.041 18.4563 362.766 26.4797 369.94L610.52 370.739C618.544 363.565 626.055 355.84 633 347.619L4 346.821Z" fill="#3F3D56"/>
<path d="M400.057 272.792V341.234C400.058 342.106 400.405 342.943 401.022 343.56C401.639 344.176 402.477 344.523 403.35 344.524H504.88C505.753 344.523 506.59 344.176 507.207 343.56C507.825 342.943 508.172 342.106 508.173 341.234V272.792C508.17 271.92 507.823 271.085 507.206 270.469C506.588 269.854 505.752 269.507 504.88 269.506H403.35C402.477 269.507 401.641 269.854 401.024 270.469C400.407 271.085 400.059 271.92 400.057 272.792Z" fill="#3F3D56"/>
<path d="M402.439 273.643V340.39C402.439 340.856 402.625 341.303 402.955 341.632C403.285 341.962 403.732 342.147 404.199 342.148H504.035C504.501 342.147 504.948 341.962 505.278 341.632C505.608 341.303 505.794 340.856 505.794 340.39V273.643C505.794 273.177 505.609 272.729 505.279 272.399C504.949 272.069 504.502 271.883 504.035 271.882H404.199C403.731 271.883 403.284 272.069 402.954 272.399C402.624 272.729 402.439 273.177 402.439 273.643Z" fill="#F5C44B"/>
<path d="M397.933 354.582C398.119 354.815 398.356 355.003 398.625 355.132C398.894 355.26 399.189 355.326 399.487 355.325H508.202C508.499 355.325 508.793 355.258 509.061 355.13C509.329 355.002 509.566 354.816 509.753 354.585C509.94 354.355 510.074 354.085 510.144 353.797C510.214 353.508 510.218 353.207 510.157 352.917L508.47 344.909C508.4 344.582 508.249 344.279 508.032 344.025C507.814 343.771 507.536 343.576 507.224 343.457C506.998 343.369 506.757 343.323 506.514 343.324H401.168C400.925 343.323 400.684 343.369 400.458 343.457C400.146 343.576 399.868 343.771 399.651 344.025C399.433 344.279 399.282 344.582 399.212 344.909L397.525 352.917C397.465 353.207 397.47 353.507 397.541 353.796C397.612 354.084 397.746 354.352 397.933 354.582Z" fill="#2F2E41"/>
<path d="M502.784 346.773H505.352C505.567 346.773 505.742 346.598 505.742 346.383V345.155C505.742 344.94 505.567 344.766 505.352 344.766H502.784C502.568 344.766 502.394 344.94 502.394 345.155V346.383C502.394 346.598 502.568 346.773 502.784 346.773Z" fill="#3F3D56"/>
<path d="M496.087 346.773H498.655C498.871 346.773 499.045 346.598 499.045 346.383V345.155C499.045 344.94 498.871 344.766 498.655 344.766H496.087C495.872 344.766 495.697 344.94 495.697 345.155V346.383C495.697 346.598 495.872 346.773 496.087 346.773Z" fill="#3F3D56"/>
<path d="M489.391 346.773H491.958C492.174 346.773 492.349 346.598 492.349 346.383V345.155C492.349 344.94 492.174 344.766 491.958 344.766H489.391C489.175 344.766 489 344.94 489 345.155V346.383C489 346.598 489.175 346.773 489.391 346.773Z" fill="#3F3D56"/>
<path d="M482.694 346.773H485.262C485.477 346.773 485.652 346.598 485.652 346.383V345.155C485.652 344.94 485.477 344.766 485.262 344.766H482.694C482.478 344.766 482.304 344.94 482.304 345.155V346.383C482.304 346.598 482.478 346.773 482.694 346.773Z" fill="#3F3D56"/>
<path d="M475.997 346.773H478.565C478.78 346.773 478.955 346.598 478.955 346.383V345.155C478.955 344.94 478.78 344.766 478.565 344.766H475.997C475.782 344.766 475.607 344.94 475.607 345.155V346.383C475.607 346.598 475.782 346.773 475.997 346.773Z" fill="#3F3D56"/>
<path d="M469.3 346.773H471.868C472.084 346.773 472.258 346.598 472.258 346.383V345.155C472.258 344.94 472.084 344.766 471.868 344.766H469.3C469.085 344.766 468.91 344.94 468.91 345.155V346.383C468.91 346.598 469.085 346.773 469.3 346.773Z" fill="#3F3D56"/>
<path d="M462.604 346.773H465.171C465.387 346.773 465.562 346.598 465.562 346.383V345.155C465.562 344.94 465.387 344.766 465.171 344.766H462.604C462.388 344.766 462.213 344.94 462.213 345.155V346.383C462.213 346.598 462.388 346.773 462.604 346.773Z" fill="#3F3D56"/>
<path d="M455.907 346.773H458.475C458.69 346.773 458.865 346.598 458.865 346.383V345.155C458.865 344.94 458.69 344.766 458.475 344.766H455.907C455.691 344.766 455.517 344.94 455.517 345.155V346.383C455.517 346.598 455.691 346.773 455.907 346.773Z" fill="#3F3D56"/>
<path d="M449.21 346.773H451.778C451.994 346.773 452.168 346.598 452.168 346.383V345.155C452.168 344.94 451.994 344.766 451.778 344.766H449.21C448.995 344.766 448.82 344.94 448.82 345.155V346.383C448.82 346.598 448.995 346.773 449.21 346.773Z" fill="#3F3D56"/>
<path d="M442.513 346.773H445.081C445.297 346.773 445.472 346.598 445.472 346.383V345.155C445.472 344.94 445.297 344.766 445.081 344.766H442.513C442.298 344.766 442.123 344.94 442.123 345.155V346.383C442.123 346.598 442.298 346.773 442.513 346.773Z" fill="#3F3D56"/>
<path d="M435.817 346.773H438.385C438.6 346.773 438.775 346.598 438.775 346.383V345.155C438.775 344.94 438.6 344.766 438.385 344.766H435.817C435.601 344.766 435.426 344.94 435.426 345.155V346.383C435.426 346.598 435.601 346.773 435.817 346.773Z" fill="#3F3D56"/>
<path d="M429.12 346.773H431.688C431.903 346.773 432.078 346.598 432.078 346.383V345.155C432.078 344.94 431.903 344.766 431.688 344.766H429.12C428.904 344.766 428.73 344.94 428.73 345.155V346.383C428.73 346.598 428.904 346.773 429.12 346.773Z" fill="#3F3D56"/>
<path d="M422.423 346.773H424.991C425.207 346.773 425.381 346.598 425.381 346.383V345.155C425.381 344.94 425.207 344.766 424.991 344.766H422.423C422.208 344.766 422.033 344.94 422.033 345.155V346.383C422.033 346.598 422.208 346.773 422.423 346.773Z" fill="#3F3D56"/>
<path d="M415.726 346.773H418.294C418.51 346.773 418.685 346.598 418.685 346.383V345.155C418.685 344.94 418.51 344.766 418.294 344.766H415.726C415.511 344.766 415.336 344.94 415.336 345.155V346.383C415.336 346.598 415.511 346.773 415.726 346.773Z" fill="#3F3D56"/>
<path d="M409.03 346.773H411.598C411.813 346.773 411.988 346.598 411.988 346.383V345.155C411.988 344.94 411.813 344.766 411.598 344.766H409.03C408.814 344.766 408.639 344.94 408.639 345.155V346.383C408.639 346.598 408.814 346.773 409.03 346.773Z" fill="#3F3D56"/>
<path d="M402.333 346.773H404.901C405.116 346.773 405.291 346.598 405.291 346.383V345.155C405.291 344.94 405.116 344.766 404.901 344.766H402.333C402.117 344.766 401.943 344.94 401.943 345.155V346.383C401.943 346.598 402.117 346.773 402.333 346.773Z" fill="#3F3D56"/>
<path d="M502.863 350.117H505.431C505.647 350.117 505.821 349.943 505.821 349.728V348.5C505.821 348.285 505.647 348.111 505.431 348.111H502.863C502.648 348.111 502.473 348.285 502.473 348.5V349.728C502.473 349.943 502.648 350.117 502.863 350.117Z" fill="#3F3D56"/>
<path d="M496.166 350.117H498.734C498.95 350.117 499.124 349.943 499.124 349.728V348.5C499.124 348.285 498.95 348.111 498.734 348.111H496.166C495.951 348.111 495.776 348.285 495.776 348.5V349.728C495.776 349.943 495.951 350.117 496.166 350.117Z" fill="#3F3D56"/>
<path d="M489.47 350.117H492.038C492.253 350.117 492.428 349.943 492.428 349.728V348.5C492.428 348.285 492.253 348.111 492.038 348.111H489.47C489.254 348.111 489.079 348.285 489.079 348.5V349.728C489.079 349.943 489.254 350.117 489.47 350.117Z" fill="#3F3D56"/>
<path d="M482.773 350.117H485.341C485.556 350.117 485.731 349.943 485.731 349.728V348.5C485.731 348.285 485.556 348.111 485.341 348.111H482.773C482.557 348.111 482.383 348.285 482.383 348.5V349.728C482.383 349.943 482.557 350.117 482.773 350.117Z" fill="#3F3D56"/>
<path d="M476.076 350.117H478.644C478.86 350.117 479.034 349.943 479.034 349.728V348.5C479.034 348.285 478.86 348.111 478.644 348.111H476.076C475.861 348.111 475.686 348.285 475.686 348.5V349.728C475.686 349.943 475.861 350.117 476.076 350.117Z" fill="#3F3D56"/>
<path d="M469.379 350.117H471.947C472.163 350.117 472.338 349.943 472.338 349.728V348.5C472.338 348.285 472.163 348.111 471.947 348.111H469.379C469.164 348.111 468.989 348.285 468.989 348.5V349.728C468.989 349.943 469.164 350.117 469.379 350.117Z" fill="#3F3D56"/>
<path d="M462.683 350.117H465.251C465.466 350.117 465.641 349.943 465.641 349.728V348.5C465.641 348.285 465.466 348.111 465.251 348.111H462.683C462.467 348.111 462.292 348.285 462.292 348.5V349.728C462.292 349.943 462.467 350.117 462.683 350.117Z" fill="#3F3D56"/>
<path d="M455.986 350.117H458.554C458.769 350.117 458.944 349.943 458.944 349.728V348.5C458.944 348.285 458.769 348.111 458.554 348.111H455.986C455.77 348.111 455.596 348.285 455.596 348.5V349.728C455.596 349.943 455.77 350.117 455.986 350.117Z" fill="#3F3D56"/>
<path d="M449.289 350.117H451.857C452.073 350.117 452.247 349.943 452.247 349.728V348.5C452.247 348.285 452.073 348.111 451.857 348.111H449.289C449.074 348.111 448.899 348.285 448.899 348.5V349.728C448.899 349.943 449.074 350.117 449.289 350.117Z" fill="#3F3D56"/>
<path d="M442.593 350.117H445.16C445.376 350.117 445.551 349.943 445.551 349.728V348.5C445.551 348.285 445.376 348.111 445.16 348.111H442.593C442.377 348.111 442.202 348.285 442.202 348.5V349.728C442.202 349.943 442.377 350.117 442.593 350.117Z" fill="#3F3D56"/>
<path d="M435.896 350.117H438.464C438.679 350.117 438.854 349.943 438.854 349.728V348.5C438.854 348.285 438.679 348.111 438.464 348.111H435.896C435.68 348.111 435.506 348.285 435.506 348.5V349.728C435.506 349.943 435.68 350.117 435.896 350.117Z" fill="#3F3D56"/>
<path d="M429.199 350.117H431.767C431.982 350.117 432.157 349.943 432.157 349.728V348.5C432.157 348.285 431.982 348.111 431.767 348.111H429.199C428.984 348.111 428.809 348.285 428.809 348.5V349.728C428.809 349.943 428.984 350.117 429.199 350.117Z" fill="#3F3D56"/>
<path d="M422.502 350.117H425.07C425.286 350.117 425.46 349.943 425.46 349.728V348.5C425.46 348.285 425.286 348.111 425.07 348.111H422.502C422.287 348.111 422.112 348.285 422.112 348.5V349.728C422.112 349.943 422.287 350.117 422.502 350.117Z" fill="#3F3D56"/>
<path d="M415.806 350.117H418.373C418.589 350.117 418.764 349.943 418.764 349.728V348.5C418.764 348.285 418.589 348.111 418.373 348.111H415.806C415.59 348.111 415.415 348.285 415.415 348.5V349.728C415.415 349.943 415.59 350.117 415.806 350.117Z" fill="#3F3D56"/>
<path d="M409.109 350.117H411.677C411.892 350.117 412.067 349.943 412.067 349.728V348.5C412.067 348.285 411.892 348.111 411.677 348.111H409.109C408.893 348.111 408.719 348.285 408.719 348.5V349.728C408.719 349.943 408.893 350.117 409.109 350.117Z" fill="#3F3D56"/>
<path d="M402.412 350.117H404.98C405.196 350.117 405.37 349.943 405.37 349.728V348.5C405.37 348.285 405.196 348.111 404.98 348.111H402.412C402.197 348.111 402.022 348.285 402.022 348.5V349.728C402.022 349.943 402.197 350.117 402.412 350.117Z" fill="#3F3D56"/>
<path d="M447.28 354.131H473.287C473.502 354.131 473.677 353.957 473.677 353.741V352.514C473.677 352.299 473.502 352.124 473.287 352.124H447.28C447.065 352.124 446.89 352.299 446.89 352.514V353.741C446.89 353.957 447.065 354.131 447.28 354.131Z" fill="#3F3D56"/>
<path d="M419.727 286.484H417.454C416.765 286.484 416.206 287.042 416.206 287.731C416.206 288.419 416.765 288.978 417.454 288.978H419.727C420.417 288.978 420.975 288.419 420.975 287.731C420.975 287.042 420.417 286.484 419.727 286.484Z" fill="white"/>
<path d="M445.727 286.484H443.454C442.764 286.484 442.206 287.042 442.206 287.731C442.206 288.419 442.764 288.978 443.454 288.978H445.727C446.416 288.978 446.975 288.419 446.975 287.731C446.975 287.042 446.416 286.484 445.727 286.484Z" fill="white"/>
<path d="M453.093 286.484H450.82C450.131 286.484 449.572 287.042 449.572 287.731C449.572 288.419 450.131 288.978 450.82 288.978H453.093C453.783 288.978 454.341 288.419 454.341 287.731C454.341 287.042 453.783 286.484 453.093 286.484Z" fill="white"/>
<path d="M438.655 286.276H424.526C423.837 286.276 423.278 286.835 423.278 287.523C423.278 288.212 423.837 288.77 424.526 288.77H438.655C439.344 288.77 439.903 288.212 439.903 287.523C439.903 286.835 439.344 286.276 438.655 286.276Z" fill="white"/>
<path d="M473.321 286.276H459.192C458.503 286.276 457.944 286.835 457.944 287.523C457.944 288.212 458.503 288.77 459.192 288.77H473.321C474.01 288.77 474.569 288.212 474.569 287.523C474.569 286.835 474.01 286.276 473.321 286.276Z" fill="white"/>
<path d="M426.66 292.112H424.387C423.698 292.112 423.139 292.67 423.139 293.358C423.139 294.047 423.698 294.605 424.387 294.605H426.66C427.35 294.605 427.908 294.047 427.908 293.358C427.908 292.67 427.35 292.112 426.66 292.112Z" fill="white"/>
<path d="M452.66 292.112H450.387C449.698 292.112 449.139 292.67 449.139 293.358C449.139 294.047 449.698 294.605 450.387 294.605H452.66C453.349 294.605 453.908 294.047 453.908 293.358C453.908 292.67 453.349 292.112 452.66 292.112Z" fill="white"/>
<path d="M460.027 292.112H457.753C457.064 292.112 456.505 292.67 456.505 293.358C456.505 294.047 457.064 294.605 457.753 294.605H460.027C460.716 294.605 461.275 294.047 461.275 293.358C461.275 292.67 460.716 292.112 460.027 292.112Z" fill="white"/>
<path d="M445.588 291.904H431.459C430.77 291.904 430.211 292.462 430.211 293.15C430.211 293.839 430.77 294.397 431.459 294.397H445.588C446.277 294.397 446.836 293.839 446.836 293.15C446.836 292.462 446.277 291.904 445.588 291.904Z" fill="white"/>
<path d="M480.254 291.904H466.125C465.436 291.904 464.877 292.462 464.877 293.15C464.877 293.839 465.436 294.397 466.125 294.397H480.254C480.943 294.397 481.502 293.839 481.502 293.15C481.502 292.462 480.943 291.904 480.254 291.904Z" fill="white"/>
<path d="M433.594 297.739H431.32C430.631 297.739 430.072 298.297 430.072 298.986C430.072 299.674 430.631 300.232 431.32 300.232H433.594C434.283 300.232 434.842 299.674 434.842 298.986C434.842 298.297 434.283 297.739 433.594 297.739Z" fill="white"/>
<path d="M459.593 297.739H457.32C456.631 297.739 456.072 298.297 456.072 298.986C456.072 299.674 456.631 300.232 457.32 300.232H459.593C460.283 300.232 460.841 299.674 460.841 298.986C460.841 298.297 460.283 297.739 459.593 297.739Z" fill="white"/>
<path d="M466.96 297.739H464.687C463.997 297.739 463.439 298.297 463.439 298.986C463.439 299.674 463.997 300.232 464.687 300.232H466.96C467.649 300.232 468.208 299.674 468.208 298.986C468.208 298.297 467.649 297.739 466.96 297.739Z" fill="white"/>
<path d="M452.521 297.531H438.392C437.703 297.531 437.144 298.089 437.144 298.778C437.144 299.466 437.703 300.025 438.392 300.025H452.521C453.211 300.025 453.769 299.466 453.769 298.778C453.769 298.089 453.211 297.531 452.521 297.531Z" fill="white"/>
<path d="M487.187 297.531H473.058C472.369 297.531 471.81 298.089 471.81 298.778C471.81 299.466 472.369 300.025 473.058 300.025H487.187C487.877 300.025 488.435 299.466 488.435 298.778C488.435 298.089 487.877 297.531 487.187 297.531Z" fill="white"/>
<path d="M440.527 303.366H438.254C437.564 303.366 437.006 303.925 437.006 304.613C437.006 305.302 437.564 305.86 438.254 305.86H440.527C441.216 305.86 441.775 305.302 441.775 304.613C441.775 303.925 441.216 303.366 440.527 303.366Z" fill="white"/>
<path d="M466.527 303.366H464.253C463.564 303.366 463.005 303.925 463.005 304.613C463.005 305.302 463.564 305.86 464.253 305.86H466.527C467.216 305.86 467.774 305.302 467.774 304.613C467.774 303.925 467.216 303.366 466.527 303.366Z" fill="white"/>
<path d="M473.893 303.366H471.62C470.931 303.366 470.372 303.925 470.372 304.613C470.372 305.302 470.931 305.86 471.62 305.86H473.893C474.582 305.86 475.141 305.302 475.141 304.613C475.141 303.925 474.582 303.366 473.893 303.366Z" fill="white"/>
<path d="M459.455 303.159H445.326C444.636 303.159 444.078 303.717 444.078 304.405C444.078 305.094 444.636 305.652 445.326 305.652H459.455C460.144 305.652 460.702 305.094 460.702 304.405C460.702 303.717 460.144 303.159 459.455 303.159Z" fill="white"/>
<path d="M445.727 325.743H443.454C442.764 325.743 442.206 326.302 442.206 326.99C442.206 327.679 442.764 328.237 443.454 328.237H445.727C446.416 328.237 446.975 327.679 446.975 326.99C446.975 326.302 446.416 325.743 445.727 325.743Z" fill="white"/>
<path d="M453.093 325.743H450.82C450.131 325.743 449.572 326.302 449.572 326.99C449.572 327.679 450.131 328.237 450.82 328.237H453.093C453.783 328.237 454.341 327.679 454.341 326.99C454.341 326.302 453.783 325.743 453.093 325.743Z" fill="white"/>
<path d="M473.321 325.951H459.192C458.503 325.951 457.944 326.509 457.944 327.198C457.944 327.886 458.503 328.445 459.192 328.445H473.321C474.01 328.445 474.569 327.886 474.569 327.198C474.569 326.509 474.01 325.951 473.321 325.951Z" fill="white"/>
<path d="M419.727 325.743H417.454C416.765 325.743 416.206 326.302 416.206 326.99C416.206 327.679 416.765 328.237 417.454 328.237H419.727C420.417 328.237 420.975 327.679 420.975 326.99C420.975 326.302 420.417 325.743 419.727 325.743Z" fill="white"/>
<path d="M438.655 325.951H424.526C423.837 325.951 423.278 326.509 423.278 327.198C423.278 327.886 423.837 328.445 424.526 328.445H438.655C439.344 328.445 439.903 327.886 439.903 327.198C439.903 326.509 439.344 325.951 438.655 325.951Z" fill="white"/>
<path d="M426.66 320.116H424.387C423.698 320.116 423.139 320.674 423.139 321.363C423.139 322.051 423.698 322.609 424.387 322.609H426.66C427.35 322.609 427.908 322.051 427.908 321.363C427.908 320.674 427.35 320.116 426.66 320.116Z" fill="white"/>
<path d="M452.66 320.116H450.387C449.698 320.116 449.139 320.674 449.139 321.363C449.139 322.051 449.698 322.609 450.387 322.609H452.66C453.349 322.609 453.908 322.051 453.908 321.363C453.908 320.674 453.349 320.116 452.66 320.116Z" fill="white"/>
<path d="M460.027 320.116H457.753C457.064 320.116 456.505 320.674 456.505 321.363C456.505 322.051 457.064 322.609 457.753 322.609H460.027C460.716 322.609 461.275 322.051 461.275 321.363C461.275 320.674 460.716 320.116 460.027 320.116Z" fill="white"/>
<path d="M445.588 320.324H431.459C430.77 320.324 430.211 320.882 430.211 321.57C430.211 322.259 430.77 322.817 431.459 322.817H445.588C446.277 322.817 446.836 322.259 446.836 321.57C446.836 320.882 446.277 320.324 445.588 320.324Z" fill="white"/>
<path d="M433.594 314.489H431.32C430.631 314.489 430.072 315.047 430.072 315.735C430.072 316.424 430.631 316.982 431.32 316.982H433.594C434.283 316.982 434.842 316.424 434.842 315.735C434.842 315.047 434.283 314.489 433.594 314.489Z" fill="white"/>
<path d="M459.593 314.489H457.32C456.631 314.489 456.072 315.047 456.072 315.735C456.072 316.424 456.631 316.982 457.32 316.982H459.593C460.283 316.982 460.841 316.424 460.841 315.735C460.841 315.047 460.283 314.489 459.593 314.489Z" fill="white"/>
<path d="M466.96 314.489H464.687C463.997 314.489 463.439 315.047 463.439 315.735C463.439 316.424 463.997 316.982 464.687 316.982H466.96C467.649 316.982 468.208 316.424 468.208 315.735C468.208 315.047 467.649 314.489 466.96 314.489Z" fill="white"/>
<path d="M452.521 314.696H438.392C437.703 314.696 437.144 315.255 437.144 315.943C437.144 316.632 437.703 317.19 438.392 317.19H452.521C453.211 317.19 453.769 316.632 453.769 315.943C453.769 315.255 453.211 314.696 452.521 314.696Z" fill="white"/>
<path d="M440.527 308.861H438.254C437.564 308.861 437.006 309.419 437.006 310.108C437.006 310.796 437.564 311.354 438.254 311.354H440.527C441.216 311.354 441.775 310.796 441.775 310.108C441.775 309.419 441.216 308.861 440.527 308.861Z" fill="white"/>
<path d="M466.527 308.861H464.253C463.564 308.861 463.005 309.419 463.005 310.108C463.005 310.796 463.564 311.354 464.253 311.354H466.527C467.216 311.354 467.774 310.796 467.774 310.108C467.774 309.419 467.216 308.861 466.527 308.861Z" fill="white"/>
<path d="M473.893 308.861H471.62C470.931 308.861 470.372 309.419 470.372 310.108C470.372 310.796 470.931 311.354 471.62 311.354H473.893C474.582 311.354 475.141 310.796 475.141 310.108C475.141 309.419 474.582 308.861 473.893 308.861Z" fill="white"/>
<path d="M459.455 309.069H445.326C444.636 309.069 444.078 309.627 444.078 310.316C444.078 311.004 444.636 311.562 445.326 311.562H459.455C460.144 311.562 460.702 311.004 460.702 310.316C460.702 309.627 460.144 309.069 459.455 309.069Z" fill="white"/>
<path d="M407.641 391.694L396.969 374.843L430.467 348.167L444.293 332.866C446.089 330.878 448.376 329.395 450.926 328.567C453.475 327.739 456.197 327.593 458.821 328.145C461.444 328.697 463.876 329.927 465.875 331.712C467.873 333.498 469.367 335.775 470.208 338.318C471.455 342.087 471.187 346.191 469.461 349.766C467.735 353.34 464.687 356.105 460.959 357.477L439.096 365.523L407.641 391.694Z" fill="#FFB6B6"/>
<path d="M157.241 269.509V351.413H214.679V269.509C214.68 268.92 214.492 268.346 214.142 267.872C213.793 267.398 213.3 267.048 212.737 266.874C212.471 266.786 212.193 266.743 211.913 266.746H160.015C159.651 266.745 159.291 266.816 158.954 266.955C158.618 267.093 158.312 267.297 158.055 267.553C157.797 267.81 157.593 268.115 157.453 268.45C157.313 268.786 157.241 269.146 157.241 269.509ZM179.657 297.652C179.672 296.037 180.324 294.493 181.473 293.357C182.621 292.221 184.172 291.583 185.788 291.583C187.405 291.583 188.956 292.221 190.104 293.357C191.252 294.493 191.905 296.037 191.92 297.652V307.155C191.911 308.774 191.262 310.324 190.113 311.466C188.964 312.608 187.409 313.249 185.788 313.249C184.167 313.249 182.613 312.608 181.464 311.466C180.315 310.324 179.665 308.774 179.657 307.155V297.652Z" fill="#2F2E41"/>
<path d="M157.065 348.793V356.691C157.066 357.101 157.229 357.493 157.518 357.783C157.807 358.073 158.198 358.237 158.608 358.241H213.312C213.722 358.239 214.115 358.075 214.404 357.784C214.693 357.494 214.855 357.101 214.855 356.691V348.793H157.065Z" fill="#3F3D56"/>
<path d="M66.8824 146.111V295.655C66.8839 297.561 67.6424 299.388 68.9914 300.736C70.3403 302.083 72.1695 302.841 74.0772 302.842H295.916C297.824 302.841 299.653 302.083 301.002 300.736C302.351 299.388 303.11 297.561 303.111 295.655V146.111C303.107 144.207 302.347 142.382 300.998 141.037C299.65 139.691 297.822 138.934 295.916 138.932H74.0772C72.1711 138.934 70.3437 139.691 68.9952 141.037C67.6467 142.382 66.8869 144.207 66.8824 146.111Z" fill="#3F3D56"/>
<path d="M72.0866 147.972V293.81C72.0884 294.829 72.494 295.805 73.2148 296.525C73.9355 297.245 74.9125 297.65 75.9318 297.652H294.07C295.089 297.65 296.066 297.245 296.787 296.525C297.507 295.805 297.913 294.829 297.915 293.81V147.972C297.915 146.952 297.51 145.974 296.789 145.253C296.068 144.531 295.09 144.125 294.07 144.122H75.9318C74.9113 144.125 73.9333 144.531 73.2125 145.253C72.4916 145.974 72.0867 146.952 72.0866 147.972Z" fill="white"/>
<path d="M112.569 357.706C112.791 357.984 113.074 358.208 113.395 358.361C113.716 358.515 114.068 358.594 114.424 358.592H244.202C244.557 358.592 244.907 358.512 245.227 358.359C245.548 358.207 245.83 357.985 246.054 357.709C246.277 357.434 246.436 357.112 246.52 356.768C246.603 356.423 246.609 356.064 246.536 355.717L244.522 346.158C244.438 345.768 244.258 345.405 243.999 345.103C243.739 344.8 243.408 344.567 243.035 344.425C242.765 344.319 242.477 344.265 242.187 344.265H116.43C116.141 344.265 115.853 344.319 115.583 344.425C115.21 344.567 114.879 344.8 114.619 345.103C114.359 345.405 114.18 345.768 114.096 346.158L112.082 355.717C112.01 356.064 112.017 356.422 112.101 356.766C112.185 357.11 112.345 357.431 112.569 357.706Z" fill="#2F2E41"/>
<path d="M286.99 164.212H82.8797C82.6676 164.208 82.4657 164.12 82.3173 163.969C82.1689 163.817 82.0859 163.613 82.0859 163.401C82.0859 163.189 82.1689 162.986 82.3173 162.834C82.4657 162.683 82.6676 162.595 82.8797 162.591H286.99C287.203 162.595 287.404 162.683 287.553 162.834C287.701 162.986 287.784 163.189 287.784 163.401C287.784 163.613 287.701 163.817 287.553 163.969C287.404 164.12 287.203 164.208 286.99 164.212Z" fill="#3F3D56"/>
<path d="M96.7738 158.451C99.401 158.451 101.531 156.276 101.531 153.593C101.531 150.91 99.401 148.735 96.7738 148.735C94.1466 148.735 92.0169 150.91 92.0169 153.593C92.0169 156.276 94.1466 158.451 96.7738 158.451Z" fill="#3F3D56"/>
<path d="M113.207 158.451C115.834 158.451 117.964 156.276 117.964 153.593C117.964 150.91 115.834 148.735 113.207 148.735C110.58 148.735 108.45 150.91 108.45 153.593C108.45 156.276 110.58 158.451 113.207 158.451Z" fill="#3F3D56"/>
<path d="M129.64 158.451C132.267 158.451 134.396 156.276 134.396 153.593C134.396 150.91 132.267 148.735 129.64 148.735C127.012 148.735 124.883 150.91 124.883 153.593C124.883 156.276 127.012 158.451 129.64 158.451Z" fill="#3F3D56"/>
<path d="M277.095 149.936H265.424C265.193 149.942 264.973 150.037 264.812 150.202C264.651 150.367 264.561 150.588 264.561 150.819C264.561 151.049 264.651 151.271 264.812 151.435C264.973 151.6 265.193 151.696 265.424 151.701H277.095C277.327 151.698 277.549 151.603 277.712 151.438C277.875 151.273 277.966 151.051 277.966 150.819C277.966 150.587 277.875 150.364 277.712 150.199C277.549 150.034 277.327 149.939 277.095 149.936Z" fill="#3F3D56"/>
<path d="M277.095 153.25H265.424C265.193 153.255 264.973 153.351 264.811 153.516C264.65 153.681 264.56 153.902 264.56 154.133C264.56 154.364 264.65 154.585 264.811 154.75C264.973 154.915 265.193 155.01 265.424 155.015H277.095C277.328 155.012 277.55 154.918 277.713 154.753C277.876 154.588 277.968 154.365 277.968 154.133C277.968 153.901 277.876 153.678 277.713 153.513C277.55 153.347 277.328 153.253 277.095 153.25Z" fill="#3F3D56"/>
<path d="M277.095 156.564H265.424C265.193 156.57 264.973 156.665 264.812 156.83C264.651 156.995 264.561 157.216 264.561 157.447C264.561 157.677 264.651 157.899 264.812 158.064C264.973 158.229 265.193 158.324 265.424 158.329H277.095C277.327 158.326 277.549 158.232 277.712 158.067C277.875 157.901 277.966 157.679 277.966 157.447C277.966 157.215 277.875 156.992 277.712 156.827C277.549 156.662 277.327 156.568 277.095 156.564Z" fill="#3F3D56"/>
<path d="M558.475 352.26C558.827 353.284 559.495 354.171 560.383 354.792C561.271 355.413 562.333 355.738 563.418 355.718L584.596 355.174C585.688 355.153 586.744 354.779 587.605 354.109C588.467 353.438 589.089 352.507 589.377 351.455L592.374 319.442C593.437 319.923 594.595 320.16 595.762 320.137C596.776 320.111 597.775 319.887 598.702 319.476C599.629 319.065 600.466 318.475 601.165 317.741C601.864 317.007 602.411 316.142 602.775 315.197C603.14 314.251 603.314 313.243 603.289 312.23C603.263 311.217 603.039 310.219 602.627 309.293C602.215 308.367 601.625 307.531 600.89 306.833C600.155 306.135 599.29 305.588 598.344 305.224C597.397 304.86 596.388 304.685 595.374 304.711C594.908 304.709 594.442 304.758 593.986 304.855C593.49 304.319 592.887 303.892 592.216 303.603C591.545 303.314 590.821 303.168 590.09 303.176L557.513 304.016C557.243 304.026 556.974 304.059 556.709 304.116C555.995 304.249 555.317 304.533 554.722 304.95C554.127 305.366 553.628 305.905 553.259 306.531C552.89 307.156 552.659 307.853 552.582 308.575C552.505 309.297 552.584 310.027 552.814 310.716L558.475 352.26ZM592.988 317.268L595.121 309.639C595.364 308.758 595.369 307.828 595.137 306.944C595.241 306.944 595.332 306.895 595.435 306.895C596.898 306.864 598.312 307.415 599.369 308.425C600.426 309.435 601.038 310.822 601.073 312.283C601.107 313.744 600.56 315.158 599.552 316.217C598.543 317.275 597.156 317.891 595.694 317.929C594.749 317.958 593.813 317.73 592.988 317.268Z" fill="#2F2E41"/>
<path d="M556.709 304.116C557.403 308.08 565.206 310.867 574.589 310.382C583.217 309.985 590.272 306.959 591.564 303.372C591.086 303.231 590.588 303.164 590.09 303.176L557.513 304.016C557.243 304.026 556.974 304.059 556.709 304.116Z" fill="#3F3D56"/>
<path d="M576.309 334.668C576.351 334.657 576.392 334.639 576.429 334.615L581.028 331.608C581.084 331.572 581.13 331.522 581.161 331.464C581.193 331.405 581.21 331.34 581.21 331.274C581.21 331.208 581.193 331.142 581.161 331.084C581.13 331.026 581.084 330.976 581.029 330.94L576.248 327.812C576.204 327.783 576.155 327.763 576.104 327.753C576.052 327.743 575.999 327.743 575.947 327.754C575.896 327.765 575.847 327.785 575.803 327.815C575.76 327.844 575.723 327.882 575.694 327.926C575.665 327.97 575.645 328.019 575.635 328.071C575.626 328.123 575.626 328.176 575.637 328.227C575.648 328.278 575.669 328.327 575.698 328.371C575.728 328.414 575.766 328.451 575.81 328.48L580.08 331.273L575.992 333.947C575.913 333.999 575.854 334.077 575.827 334.167C575.8 334.258 575.806 334.355 575.844 334.442C575.882 334.528 575.95 334.598 576.035 334.64C576.12 334.681 576.217 334.691 576.309 334.668Z" fill="#F5C44B"/>
<path d="M569.044 335.003C569.122 334.983 569.191 334.941 569.244 334.882C569.297 334.823 569.332 334.749 569.342 334.67C569.353 334.591 569.34 334.511 569.305 334.44C569.27 334.368 569.214 334.309 569.145 334.269L564.906 331.841L569.003 328.801C569.046 328.77 569.081 328.73 569.108 328.685C569.135 328.64 569.153 328.591 569.16 328.539C569.168 328.487 569.165 328.434 569.153 328.383C569.14 328.332 569.117 328.285 569.086 328.243C569.055 328.201 569.015 328.165 568.97 328.138C568.925 328.111 568.875 328.093 568.823 328.086C568.772 328.078 568.719 328.081 568.668 328.094C568.617 328.106 568.569 328.129 568.527 328.16L563.939 331.564C563.886 331.604 563.843 331.656 563.815 331.716C563.787 331.776 563.775 331.842 563.779 331.908C563.782 331.975 563.803 332.039 563.838 332.095C563.873 332.151 563.921 332.198 563.979 332.231L568.747 334.962C568.837 335.014 568.944 335.028 569.044 335.003Z" fill="#F5C44B"/>
<path d="M575.851 337.303C575.89 337.294 575.927 337.278 575.961 337.257C576.006 337.23 576.045 337.194 576.076 337.152C576.107 337.109 576.129 337.061 576.142 337.01C576.154 336.96 576.156 336.907 576.148 336.855C576.14 336.803 576.122 336.753 576.095 336.708L569.575 326.001C569.52 325.91 569.431 325.846 569.328 325.821C569.225 325.796 569.116 325.813 569.026 325.868C568.935 325.923 568.87 326.012 568.845 326.114C568.82 326.217 568.837 326.326 568.892 326.416L575.412 337.124C575.456 337.197 575.523 337.254 575.602 337.286C575.681 337.318 575.768 337.324 575.851 337.303Z" fill="#F5C44B"/>
<path d="M209.323 208.294H173.996C172.555 208.294 171.386 209.461 171.386 210.901V214.349C171.386 215.788 172.555 216.956 173.996 216.956H209.323C210.764 216.956 211.932 215.788 211.932 214.349V210.901C211.932 209.461 210.764 208.294 209.323 208.294Z" fill="#F5C44B"/>
<path d="M229.915 225.617H153.404C151.963 225.617 150.794 226.784 150.794 228.224V231.671C150.794 233.111 151.963 234.278 153.404 234.278H229.915C231.356 234.278 232.524 233.111 232.524 231.671V228.224C232.524 226.784 231.356 225.617 229.915 225.617Z" fill="#E6E6E6"/>
<path d="M229.915 242.939H153.404C151.963 242.939 150.794 244.106 150.794 245.546V248.994C150.794 250.434 151.963 251.601 153.404 251.601H229.915C231.356 251.601 232.524 250.434 232.524 248.994V245.546C232.524 244.106 231.356 242.939 229.915 242.939Z" fill="#E6E6E6"/>
<path d="M236.401 300.946L236.574 301.492L236.583 301.511L241.799 317.353L247.8 335.61L259.09 369.918L259.199 375.248V375.266L260.038 418.138L257.713 423.95L260.33 433.479C260.33 433.479 259.126 419.075 252.67 427.347C249.013 432.048 244.736 436.858 241.225 441.367C246.341 443.435 251.539 445.306 256.819 446.979C257.959 447.343 259.108 447.69 260.257 448.036C260.503 448.109 260.75 448.182 260.996 448.254C278.499 453.425 296.594 456.331 314.838 456.9C315.786 456.927 316.716 456.945 317.619 456.964C317.938 456.973 318.248 456.982 318.558 456.982C319.58 456.991 320.592 457 321.613 457C323.674 457 325.726 456.97 327.769 456.909C342.889 456.483 357.92 454.452 372.61 450.851C372.509 444.793 372.236 437.714 371.844 430.153C371.661 426.445 367.567 422.427 367.32 418.546C367.147 415.631 370.822 412.889 370.631 409.928C369.391 391.699 367.84 398.697 366.691 385.788C366.573 384.522 366.463 383.31 366.363 382.153C365.624 373.863 365.113 368.679 365.113 368.679L370.02 337.787L377.726 289.285L377.133 288.31L376.467 287.982L335.822 267.885L333.615 262.237C332.972 260.61 331.856 259.212 330.411 258.223C328.966 257.235 327.259 256.7 325.507 256.689L298.732 256.58C297.343 256.574 295.972 256.898 294.733 257.527C293.495 258.156 292.424 259.071 291.61 260.197L284.36 270.227L236.401 300.946Z" fill="#A1D7E3"/>
<path d="M265.264 362.284L259.199 375.248L255.059 384.102L247.937 421.354L244.371 425.134L241.316 411.75L209.341 418.843C208.292 413.021 209.06 419.04 208.413 412.653C208.595 412.471 208.787 412.289 208.978 412.107C209.489 411.633 209.917 411.187 209.908 410.758C209.543 388.73 210.638 351.242 219.776 328.531C221.207 324.823 223.094 321.307 225.393 318.064C225.576 317.818 225.749 317.572 225.922 317.326C230.135 311.431 232.798 305.628 236.574 301.502V301.492C236.597 301.473 236.619 301.452 236.638 301.429C236.651 301.422 236.664 301.413 236.674 301.401L262.61 287.663L263.723 318.893L264.516 341.34L265.264 362.284Z" fill="#A1D7E3"/>
<path d="M358.784 365.966L366.359 382.157L369.003 387.796L376.124 425.044L379.678 428.815L382.74 415.435L384.178 415.14L410.126 409.771L417.689 433.766C419.394 430.929 420.066 427.591 419.591 424.316C419.116 421.041 417.523 418.03 415.082 415.793C414.566 415.326 414.135 414.872 414.148 414.442C414.578 388.533 412.992 341.224 398.665 321.753C394.115 315.573 391.385 309.419 387.413 305.119C387.4 305.107 387.4 305.095 387.388 305.095L377.722 289.284L377.132 288.313L376.468 287.982L358.784 365.966Z" fill="#A1D7E3"/>
<path d="M312.893 248.968C332.566 248.968 348.514 233.036 348.514 213.384C348.514 193.732 332.566 177.8 312.893 177.8C293.22 177.8 277.272 193.732 277.272 213.384C277.272 233.036 293.22 248.968 312.893 248.968Z" fill="#FFB6B6"/>
<path d="M361.039 188.529C360.763 188.234 360.43 187.998 360.061 187.835C359.691 187.672 359.293 187.584 358.889 187.579L359.424 186.093C359.599 185.625 359.646 185.119 359.561 184.627C359.476 184.135 359.261 183.675 358.939 183.293C358.617 182.911 358.199 182.621 357.728 182.454C357.257 182.286 356.75 182.247 356.258 182.34L354.308 182.715L354.492 181.413C354.562 180.929 354.505 180.434 354.326 179.978C354.147 179.522 353.853 179.12 353.471 178.812C353.089 178.504 352.634 178.301 352.15 178.222C351.666 178.143 351.17 178.192 350.71 178.363C350.292 178.527 349.843 178.596 349.395 178.564C348.946 178.532 348.511 178.401 348.12 178.179C347.728 177.964 347.388 177.666 347.122 177.306C346.857 176.946 346.674 176.533 346.585 176.095L345.906 172.821L345.834 172.645C342.524 167.135 336.161 163.126 328.375 161.656C321.444 160.339 314.337 161.009 307.486 161.64C304.768 161.896 301.698 162.183 299.14 163.749C296.965 165.09 295.127 167.773 295.503 170.481C288.747 168.412 281.505 172.541 277.915 177.748C273.662 183.945 272.967 191.707 272.855 197.776C272.551 212.135 275.517 223.882 281.649 232.699C282.096 233.338 282.208 234.671 283.095 235.119L282.912 234.823C283.903 235.318 284.91 236.117 284.534 236.971C283.455 239.431 290.626 244.869 295.678 246.666C304.896 249.948 317.151 249.669 325.769 248.487L326.072 246.451C329.182 246.027 331.372 245.221 331.988 243.959C333.075 243.033 334.003 242.202 334.81 241.435L334.818 241.427C334.834 241.412 334.866 241.388 334.882 241.372C338.775 237.642 339.678 235.518 340.086 232.284C340.478 229.113 339.782 225.895 339.071 222.996C354.052 225.312 333.171 207.056 347.129 203.526C347.289 203.477 347.452 203.437 347.617 203.407C348.024 203.311 348.432 203.215 348.824 203.103C350.712 202.591 352.52 201.82 354.196 200.811C358.097 198.439 359.384 195.293 361.399 191.747C361.689 191.242 361.811 190.658 361.747 190.079C361.682 189.5 361.434 188.957 361.039 188.529Z" fill="#A67D6B"/>
<path d="M438.879 368.499C438.871 369.897 438.855 371.853 438.791 374.273C438.783 374.609 438.775 374.952 438.767 375.303C438.663 379.751 438.559 383.481 438.391 387.626C438.383 387.913 438.375 388.193 438.359 388.48C438.135 394.262 437.783 400.994 437.176 411.655C436.049 431.348 434.082 414.362 432.107 421.27C432.011 421.614 431.908 422.021 431.812 422.5C431.513 424.239 431.008 425.935 430.309 427.555C429.261 428.178 428.182 428.777 427.119 429.376C424.089 431.061 421.011 432.682 417.91 434.223C416.167 435.086 414.416 435.932 412.658 436.747C412.378 436.875 412.106 437.003 411.834 437.122C402.828 441.284 393.546 444.822 384.054 447.712C382.2 448.271 380.353 448.814 378.482 449.317C376.532 449.86 374.581 450.371 372.607 450.85C357.917 454.453 342.886 456.484 327.767 456.911C325.729 456.975 323.674 456.999 321.612 456.999C320.588 456.999 319.581 456.991 318.558 456.983C318.246 456.983 317.934 456.975 317.622 456.967C316.719 456.943 315.784 456.927 314.84 456.903C296.597 456.335 278.502 453.428 261 448.255L260.256 448.039C259.105 447.688 257.962 447.344 256.819 446.977C251.542 445.308 246.343 443.439 241.222 441.371C237.313 439.798 233.449 438.11 229.63 436.308C229.595 436.298 229.563 436.282 229.534 436.26C228.735 435.892 227.928 435.509 227.128 435.118C227.024 435.062 226.912 435.006 226.8 434.95C223.818 433.497 220.869 431.974 217.951 430.382C215.497 424.752 212.043 423.674 209.901 418.723C209.277 417.252 208.826 415.714 208.558 414.139C208.558 414.123 208.55 414.107 208.55 414.083C208.773 417.054 207.598 408.812 208.542 414.051C208.534 413.955 208.526 413.851 208.518 413.732C208.494 413.444 208.462 413.093 208.414 412.653C205.672 385.909 205.848 355.323 204.656 330.119C204.576 328.49 204.494 326.93 204.409 325.439C204.385 324.944 204.353 324.457 204.321 323.978C204.377 323.834 204.441 323.682 204.512 323.539C204.528 323.497 204.547 323.457 204.568 323.419C204.592 323.369 204.619 323.321 204.648 323.275C204.664 323.251 204.688 323.219 204.704 323.195C204.716 323.168 204.729 323.141 204.744 323.115C204.816 323.004 204.896 322.884 204.984 322.772C205.024 322.724 205.056 322.684 205.096 322.644C205.124 322.603 205.156 322.566 205.192 322.532C205.217 322.494 205.246 322.459 205.28 322.429C205.312 322.397 205.344 322.357 205.384 322.317C205.401 322.292 205.423 322.27 205.448 322.253C205.511 322.18 205.581 322.114 205.656 322.053C205.941 321.791 206.246 321.551 206.567 321.335C206.679 321.263 206.799 321.191 206.911 321.111C207.716 320.63 208.565 320.223 209.445 319.897C209.749 319.785 210.052 319.682 210.38 319.57C210.5 319.538 210.612 319.498 210.732 319.458C210.908 319.402 211.084 319.346 211.268 319.306C212.179 319.035 213.162 318.803 214.225 318.587C214.353 318.563 214.489 318.54 214.625 318.508C214.817 318.468 215.017 318.436 215.217 318.404C215.489 318.356 215.768 318.308 216.048 318.26C218.422 317.885 221.116 317.605 224.09 317.421C224.37 317.406 224.65 317.39 224.93 317.374C225.257 317.358 225.585 317.342 225.921 317.326C226.201 317.31 226.489 317.302 226.776 317.294C227.056 317.278 227.344 317.27 227.64 317.262C228.447 317.238 229.279 317.214 230.126 317.198C232.54 317.15 235.082 317.166 237.752 317.222C238.991 317.254 240.255 317.286 241.55 317.342C241.638 317.342 241.718 317.35 241.797 317.35C242.925 317.39 244.06 317.437 245.227 317.501C246.042 317.541 246.866 317.581 247.689 317.629C248.465 317.677 249.248 317.725 250.039 317.781C250.655 317.813 251.271 317.861 251.894 317.901C252.422 317.941 252.949 317.98 253.477 318.012L254.196 318.06C254.588 318.092 254.98 318.116 255.38 318.156C256.259 318.228 257.138 318.3 258.034 318.372C258.921 318.452 259.824 318.532 260.728 318.611C261.631 318.691 262.542 318.779 263.454 318.867C263.55 318.875 263.638 318.883 263.726 318.891C264.557 318.979 265.388 319.059 266.228 319.146C266.42 319.162 266.619 319.178 266.811 319.202C267.612 319.283 268.427 319.377 269.235 319.462C269.483 319.489 269.73 319.515 269.978 319.542C270.611 319.611 271.234 319.671 271.872 319.745C272.711 319.841 273.566 319.929 274.398 320.041C275.045 320.113 275.693 320.185 276.34 320.264C277.356 320.384 278.387 320.512 279.418 320.648C279.81 320.696 280.202 320.744 280.593 320.8C283.535 321.167 286.509 321.574 289.531 321.997C294.111 322.644 298.764 323.347 303.449 324.106C308.141 324.864 312.861 325.666 317.606 326.509C318.806 326.725 320.005 326.941 321.212 327.164C321.755 327.268 322.299 327.372 322.843 327.476C323.77 327.643 324.697 327.819 325.625 327.995C326.552 328.17 327.479 328.346 328.407 328.53C329.51 328.745 330.621 328.961 331.724 329.177C338.991 330.614 346.218 332.147 353.269 333.753C354.428 334.016 355.587 334.288 356.738 334.551C359.04 335.086 361.321 335.629 363.581 336.18C364.205 336.324 364.82 336.476 365.436 336.628C366.971 337.011 368.505 337.394 370.016 337.786L370.28 337.857C371.391 338.129 372.479 338.408 373.566 338.696C376.132 339.367 378.655 340.046 381.136 340.732C382.783 341.188 384.411 341.648 386.021 342.114C388.427 342.809 390.785 343.511 393.08 344.222C393.647 344.398 394.215 344.574 394.774 344.741C396.453 345.26 398.108 345.787 399.715 346.314C400.994 346.73 402.241 347.153 403.472 347.576C404.703 348 405.91 348.423 407.094 348.846C407.853 349.118 408.604 349.405 409.356 349.677C410.435 350.076 411.498 350.475 412.538 350.874C412.857 350.994 413.169 351.122 413.481 351.242C413.681 351.33 413.873 351.401 414.064 351.481C414.44 351.633 414.824 351.777 415.192 351.929C415.567 352.072 415.935 352.224 416.303 352.384C416.663 352.527 417.03 352.679 417.382 352.831C417.742 352.975 418.094 353.126 418.445 353.286C418.741 353.406 419.029 353.534 419.309 353.662C419.876 353.909 420.444 354.157 420.995 354.412C421.267 354.54 421.539 354.66 421.811 354.788L422.434 355.075C422.522 355.123 422.61 355.163 422.698 355.203C422.898 355.299 423.106 355.402 423.306 355.498C423.769 355.714 424.225 355.945 424.673 356.161C425.272 356.465 425.856 356.768 426.415 357.064C426.983 357.367 427.535 357.67 428.062 357.966C428.15 358.014 428.23 358.062 428.318 358.11C428.438 358.174 428.558 358.245 428.678 358.309C429.086 358.541 429.477 358.78 429.869 359.012C430.636 359.483 431.364 359.946 432.043 360.41C432.195 360.513 432.339 360.617 432.491 360.713C432.995 361.072 433.474 361.424 433.922 361.783C433.922 361.791 433.922 361.791 433.93 361.791C434.082 361.903 434.226 362.023 434.37 362.135C434.49 362.246 434.618 362.342 434.737 362.454C435.153 362.813 435.537 363.157 435.889 363.508C436.007 363.617 436.119 363.731 436.224 363.851C436.271 363.89 436.314 363.933 436.352 363.979C436.512 364.139 436.656 364.299 436.792 364.458C436.813 364.48 436.832 364.504 436.848 364.53C437.04 364.754 437.216 364.978 437.384 365.201C437.464 365.313 437.551 365.425 437.623 365.537C437.719 365.672 437.815 365.816 437.895 365.952C437.967 366.064 438.031 366.183 438.095 366.295C438.265 366.583 438.409 366.885 438.527 367.198C438.617 367.41 438.689 367.629 438.743 367.852C438.803 368.065 438.849 368.281 438.879 368.499Z" fill="#2F2E41"/>
<path opacity="0.2" d="M438.879 368.499C438.871 369.897 438.855 371.853 438.791 374.273C438.783 374.609 438.767 374.952 438.759 375.303C438.679 378.697 438.559 382.89 438.391 387.626C438.383 387.913 438.375 388.193 438.359 388.48C438.135 394.262 437.783 400.994 437.176 411.655C436.049 431.348 434.082 414.362 432.107 421.27C426.623 417.9 420.612 414.37 414.184 410.745C413.025 410.09 411.855 409.432 410.675 408.772C397.82 401.609 383.463 394.102 368.474 386.667C367.882 386.372 367.282 386.076 366.691 385.789C332.356 368.835 294.879 352.344 264.517 341.339C258.657 339.215 253.061 337.298 247.801 335.613C236.721 332.076 227.144 329.6 219.773 328.53C212.099 327.412 206.799 327.811 204.656 330.119C204.576 328.49 204.494 326.93 204.409 325.439C204.377 324.944 204.345 324.457 204.313 323.978C204.362 323.846 204.426 323.721 204.488 323.594C204.497 323.576 204.503 323.557 204.512 323.539C204.528 323.497 204.546 323.457 204.568 323.419C204.592 323.369 204.619 323.321 204.648 323.275C204.674 323.218 204.707 323.165 204.744 323.115C204.816 323.004 204.896 322.884 204.984 322.772C205.049 322.688 205.118 322.608 205.192 322.532C205.216 322.494 205.246 322.459 205.28 322.429C205.312 322.397 205.344 322.357 205.384 322.317C205.401 322.292 205.423 322.27 205.448 322.253C205.511 322.18 205.581 322.114 205.656 322.053C205.941 321.791 206.245 321.551 206.567 321.335C206.679 321.263 206.799 321.191 206.911 321.111C207.716 320.629 208.565 320.223 209.445 319.897C209.749 319.785 210.052 319.681 210.38 319.57C210.5 319.538 210.612 319.498 210.732 319.458C210.908 319.402 211.084 319.346 211.268 319.306C212.179 319.035 213.162 318.803 214.225 318.587C214.545 318.523 214.881 318.46 215.217 318.404C215.489 318.356 215.768 318.308 216.048 318.26C218.422 317.885 221.116 317.605 224.09 317.421C224.37 317.405 224.65 317.389 224.93 317.373C225.257 317.358 225.585 317.342 225.921 317.326C226.201 317.31 226.489 317.302 226.776 317.294C227.056 317.278 227.344 317.27 227.64 317.262C228.447 317.238 229.279 317.214 230.126 317.198C232.54 317.158 235.082 317.174 237.752 317.23C238.991 317.254 240.255 317.294 241.55 317.35C241.63 317.35 241.717 317.358 241.797 317.358C242.925 317.389 244.068 317.445 245.227 317.501C246.042 317.541 246.866 317.581 247.689 317.629C248.465 317.677 249.248 317.725 250.039 317.781C250.655 317.813 251.27 317.861 251.894 317.901C252.422 317.941 252.949 317.98 253.477 318.012C254.108 318.06 254.74 318.108 255.38 318.156C256.259 318.228 257.138 318.3 258.034 318.372C258.921 318.452 259.824 318.531 260.728 318.611C261.631 318.691 262.542 318.779 263.454 318.867C263.55 318.875 263.638 318.883 263.726 318.891C264.557 318.979 265.388 319.059 266.228 319.146C270.88 319.618 275.669 320.169 280.593 320.799C283.535 321.175 286.514 321.577 289.531 322.005C294.111 322.652 298.764 323.355 303.449 324.106C308.141 324.864 312.861 325.666 317.606 326.509C318.806 326.725 320.005 326.941 321.212 327.164C322.683 327.436 324.154 327.713 325.625 327.995C326.552 328.17 327.479 328.346 328.407 328.53C329.51 328.745 330.621 328.961 331.724 329.177C338.991 330.614 346.218 332.147 353.269 333.753C354.428 334.016 355.587 334.288 356.738 334.551C359.04 335.086 361.321 335.629 363.581 336.18C364.205 336.332 364.82 336.484 365.436 336.635C366.979 337.019 368.506 337.402 370.016 337.785V337.793C370.104 337.809 370.192 337.833 370.28 337.857C371.383 338.137 372.479 338.416 373.566 338.704C376.132 339.375 378.656 340.051 381.136 340.732C382.783 341.195 384.414 341.651 386.021 342.114C388.427 342.817 390.785 343.519 393.08 344.222C393.647 344.398 394.215 344.574 394.775 344.741C396.453 345.268 398.1 345.793 399.715 346.314C400.994 346.73 402.241 347.153 403.472 347.576C404.703 347.999 405.91 348.423 407.094 348.846C407.861 349.118 408.612 349.397 409.356 349.669C410.443 350.068 411.498 350.467 412.538 350.874C412.857 350.994 413.169 351.122 413.481 351.242C414.064 351.465 414.632 351.697 415.192 351.929C415.567 352.072 415.935 352.224 416.303 352.384C416.663 352.527 417.03 352.679 417.382 352.831C417.742 352.975 418.094 353.126 418.445 353.286C418.741 353.406 419.029 353.534 419.309 353.661C419.876 353.909 420.444 354.157 420.995 354.412C421.267 354.54 421.539 354.66 421.811 354.788L422.434 355.075C422.522 355.123 422.61 355.163 422.698 355.203C423.378 355.522 424.033 355.842 424.673 356.161C425.272 356.465 425.856 356.768 426.416 357.063C427.079 357.415 427.711 357.758 428.318 358.11C428.438 358.173 428.558 358.245 428.678 358.309C429.086 358.541 429.477 358.78 429.869 359.012C430.636 359.483 431.364 359.946 432.043 360.41C432.715 360.873 433.339 361.328 433.922 361.783C433.922 361.791 433.922 361.791 433.93 361.791C434.21 362.015 434.482 362.238 434.738 362.454C435.153 362.813 435.537 363.157 435.889 363.508C436.007 363.617 436.119 363.731 436.224 363.851C436.271 363.89 436.314 363.933 436.352 363.979C436.52 364.163 436.688 364.347 436.848 364.53C437.04 364.754 437.216 364.977 437.384 365.201C437.464 365.313 437.552 365.425 437.623 365.536C437.719 365.672 437.815 365.816 437.895 365.952C437.967 366.064 438.031 366.183 438.095 366.295C438.265 366.583 438.409 366.885 438.527 367.198C438.614 367.41 438.686 367.629 438.743 367.852C438.803 368.065 438.849 368.281 438.879 368.499Z" fill="black"/>
</g>
<defs>
<filter id="filter0_d_14_2" x="31" y="401" width="40" height="40" filterUnits="userSpaceOnUse" color-interpolation-filters="sRGB">
<feFlood flood-opacity="0" result="BackgroundImageFix"/>
<feColorMatrix in="SourceAlpha" type="matrix" values="0 0 0 0 0 0 0 0 0 0 0 0 0 0 0 0 0 0 127 0" result="hardAlpha"/>
<feOffset dy="2"/>
<feGaussianBlur stdDeviation="2.5"/>
<feComposite in2="hardAlpha" operator="out"/>
<feColorMatrix type="matrix" values="0 0 0 0 0 0 0 0 0 0 0 0 0 0 0 0 0 0 0.25 0"/>
<feBlend mode="normal" in2="BackgroundImageFix" result="effect1_dropShadow_14_2"/>
<feBlend mode="normal" in="SourceGraphic" in2="effect1_dropShadow_14_2" result="shape"/>
</filter>
<filter id="filter1_d_14_2" x="31" y="451" width="40" height="40" filterUnits="userSpaceOnUse" color-interpolation-filters="sRGB">
<feFlood flood-opacity="0" result="BackgroundImageFix"/>
<feColorMatrix in="SourceAlpha" type="matrix" values="0 0 0 0 0 0 0 0 0 0 0 0 0 0 0 0 0 0 127 0" result="hardAlpha"/>
<feOffset dy="2"/>
<feGaussianBlur stdDeviation="2.5"/>
<feComposite in2="hardAlpha" operator="out"/>
<feColorMatrix type="matrix" values="0 0 0 0 0 0 0 0 0 0 0 0 0 0 0 0 0 0 0.25 0"/>
<feBlend mode="normal" in2="BackgroundImageFix" result="effect1_dropShadow_14_2"/>
<feBlend mode="normal" in="SourceGraphic" in2="effect1_dropShadow_14_2" result="shape"/>
</filter>
<filter id="filter2_d_14_2" x="31" y="501" width="40" height="40" filterUnits="userSpaceOnUse" color-interpolation-filters="sRGB">
<feFlood flood-opacity="0" result="BackgroundImageFix"/>
<feColorMatrix in="SourceAlpha" type="matrix" values="0 0 0 0 0 0 0 0 0 0 0 0 0 0 0 0 0 0 127 0" result="hardAlpha"/>
<feOffset dy="2"/>
<feGaussianBlur stdDeviation="2.5"/>
<feComposite in2="hardAlpha" operator="out"/>
<feColorMatrix type="matrix" values="0 0 0 0 0 0 0 0 0 0 0 0 0 0 0 0 0 0 0.25 0"/>
<feBlend mode="normal" in2="BackgroundImageFix" result="effect1_dropShadow_14_2"/>
<feBlend mode="normal" in="SourceGraphic" in2="effect1_dropShadow_14_2" result="shape"/>
</filter>
<filter id="filter3_d_14_2" x="98" y="501" width="40" height="40" filterUnits="userSpaceOnUse" color-interpolation-filters="sRGB">
<feFlood flood-opacity="0" result="BackgroundImageFix"/>
<feColorMatrix in="SourceAlpha" type="matrix" values="0 0 0 0 0 0 0 0 0 0 0 0 0 0 0 0 0 0 127 0" result="hardAlpha"/>
<feOffset dy="2"/>
<feGaussianBlur stdDeviation="2.5"/>
<feComposite in2="hardAlpha" operator="out"/>
<feColorMatrix type="matrix" values="0 0 0 0 0 0 0 0 0 0 0 0 0 0 0 0 0 0 0.25 0"/>
<feBlend mode="normal" in2="BackgroundImageFix" result="effect1_dropShadow_14_2"/>
<feBlend mode="normal" in="SourceGraphic" in2="effect1_dropShadow_14_2" result="shape"/>
</filter>
<filter id="filter4_d_14_2" x="165" y="501" width="40" height="40" filterUnits="userSpaceOnUse" color-interpolation-filters="sRGB">
<feFlood flood-opacity="0" result="BackgroundImageFix"/>
<feColorMatrix in="SourceAlpha" type="matrix" values="0 0 0 0 0 0 0 0 0 0 0 0 0 0 0 0 0 0 127 0" result="hardAlpha"/>
<feOffset dy="2"/>
<feGaussianBlur stdDeviation="2.5"/>
<feComposite in2="hardAlpha" operator="out"/>
<feColorMatrix type="matrix" values="0 0 0 0 0 0 0 0 0 0 0 0 0 0 0 0 0 0 0.25 0"/>
<feBlend mode="normal" in2="BackgroundImageFix" result="effect1_dropShadow_14_2"/>
<feBlend mode="normal" in="SourceGraphic" in2="effect1_dropShadow_14_2" result="shape"/>
</filter>
<filter id="filter5_d_14_2" x="232" y="501" width="40" height="40" filterUnits="userSpaceOnUse" color-interpolation-filters="sRGB">
<feFlood flood-opacity="0" result="BackgroundImageFix"/>
<feColorMatrix in="SourceAlpha" type="matrix" values="0 0 0 0 0 0 0 0 0 0 0 0 0 0 0 0 0 0 127 0" result="hardAlpha"/>
<feOffset dy="2"/>
<feGaussianBlur stdDeviation="2.5"/>
<feComposite in2="hardAlpha" operator="out"/>
<feColorMatrix type="matrix" values="0 0 0 0 0 0 0 0 0 0 0 0 0 0 0 0 0 0 0.25 0"/>
<feBlend mode="normal" in2="BackgroundImageFix" result="effect1_dropShadow_14_2"/>
<feBlend mode="normal" in="SourceGraphic" in2="effect1_dropShadow_14_2" result="shape"/>
</filter>
<filter id="filter6_d_14_2" x="299" y="501" width="40" height="40" filterUnits="userSpaceOnUse" color-interpolation-filters="sRGB">
<feFlood flood-opacity="0" result="BackgroundImageFix"/>
<feColorMatrix in="SourceAlpha" type="matrix" values="0 0 0 0 0 0 0 0 0 0 0 0 0 0 0 0 0 0 127 0" result="hardAlpha"/>
<feOffset dy="2"/>
<feGaussianBlur stdDeviation="2.5"/>
<feComposite in2="hardAlpha" operator="out"/>
<feColorMatrix type="matrix" values="0 0 0 0 0 0 0 0 0 0 0 0 0 0 0 0 0 0 0.25 0"/>
<feBlend mode="normal" in2="BackgroundImageFix" result="effect1_dropShadow_14_2"/>
<feBlend mode="normal" in="SourceGraphic" in2="effect1_dropShadow_14_2" result="shape"/>
</filter>
<filter id="filter7_d_14_2" x="232" y="451" width="40" height="40" filterUnits="userSpaceOnUse" color-interpolation-filters="sRGB">
<feFlood flood-opacity="0" result="BackgroundImageFix"/>
<feColorMatrix in="SourceAlpha" type="matrix" values="0 0 0 0 0 0 0 0 0 0 0 0 0 0 0 0 0 0 127 0" result="hardAlpha"/>
<feOffset dy="2"/>
<feGaussianBlur stdDeviation="2.5"/>
<feComposite in2="hardAlpha" operator="out"/>
<feColorMatrix type="matrix" values="0 0 0 0 0 0 0 0 0 0 0 0 0 0 0 0 0 0 0.25 0"/>
<feBlend mode="normal" in2="BackgroundImageFix" result="effect1_dropShadow_14_2"/>
<feBlend mode="normal" in="SourceGraphic" in2="effect1_dropShadow_14_2" result="shape"/>
</filter>
<filter id="filter8_d_14_2" x="299" y="451" width="40" height="40" filterUnits="userSpaceOnUse" color-interpolation-filters="sRGB">
<feFlood flood-opacity="0" result="BackgroundImageFix"/>
<feColorMatrix in="SourceAlpha" type="matrix" values="0 0 0 0 0 0 0 0 0 0 0 0 0 0 0 0 0 0 127 0" result="hardAlpha"/>
<feOffset dy="2"/>
<feGaussianBlur stdDeviation="2.5"/>
<feComposite in2="hardAlpha" operator="out"/>
<feColorMatrix type="matrix" values="0 0 0 0 0 0 0 0 0 0 0 0 0 0 0 0 0 0 0.25 0"/>
<feBlend mode="normal" in2="BackgroundImageFix" result="effect1_dropShadow_14_2"/>
<feBlend mode="normal" in="SourceGraphic" in2="effect1_dropShadow_14_2" result="shape"/>
</filter>
<filter id="filter9_d_14_2" x="98" y="451" width="40" height="40" filterUnits="userSpaceOnUse" color-interpolation-filters="sRGB">
<feFlood flood-opacity="0" result="BackgroundImageFix"/>
<feColorMatrix in="SourceAlpha" type="matrix" values="0 0 0 0 0 0 0 0 0 0 0 0 0 0 0 0 0 0 127 0" result="hardAlpha"/>
<feOffset dy="2"/>
<feGaussianBlur stdDeviation="2.5"/>
<feComposite in2="hardAlpha" operator="out"/>
<feColorMatrix type="matrix" values="0 0 0 0 0 0 0 0 0 0 0 0 0 0 0 0 0 0 0.25 0"/>
<feBlend mode="normal" in2="BackgroundImageFix" result="effect1_dropShadow_14_2"/>
<feBlend mode="normal" in="SourceGraphic" in2="effect1_dropShadow_14_2" result="shape"/>
</filter>
<filter id="filter10_d_14_2" x="165" y="451" width="40" height="40" filterUnits="userSpaceOnUse" color-interpolation-filters="sRGB">
<feFlood flood-opacity="0" result="BackgroundImageFix"/>
<feColorMatrix in="SourceAlpha" type="matrix" values="0 0 0 0 0 0 0 0 0 0 0 0 0 0 0 0 0 0 127 0" result="hardAlpha"/>
<feOffset dy="2"/>
<feGaussianBlur stdDeviation="2.5"/>
<feComposite in2="hardAlpha" operator="out"/>
<feColorMatrix type="matrix" values="0 0 0 0 0 0 0 0 0 0 0 0 0 0 0 0 0 0 0.25 0"/>
<feBlend mode="normal" in2="BackgroundImageFix" result="effect1_dropShadow_14_2"/>
<feBlend mode="normal" in="SourceGraphic" in2="effect1_dropShadow_14_2" result="shape"/>
</filter>
<filter id="filter11_d_14_2" x="232" y="401" width="40" height="40" filterUnits="userSpaceOnUse" color-interpolation-filters="sRGB">
<feFlood flood-opacity="0" result="BackgroundImageFix"/>
<feColorMatrix in="SourceAlpha" type="matrix" values="0 0 0 0 0 0 0 0 0 0 0 0 0 0 0 0 0 0 127 0" result="hardAlpha"/>
<feOffset dy="2"/>
<feGaussianBlur stdDeviation="2.5"/>
<feComposite in2="hardAlpha" operator="out"/>
<feColorMatrix type="matrix" values="0 0 0 0 0 0 0 0 0 0 0 0 0 0 0 0 0 0 0.25 0"/>
<feBlend mode="normal" in2="BackgroundImageFix" result="effect1_dropShadow_14_2"/>
<feBlend mode="normal" in="SourceGraphic" in2="effect1_dropShadow_14_2" result="shape"/>
</filter>
<filter id="filter12_d_14_2" x="299" y="401" width="40" height="40" filterUnits="userSpaceOnUse" color-interpolation-filters="sRGB">
<feFlood flood-opacity="0" result="BackgroundImageFix"/>
<feColorMatrix in="SourceAlpha" type="matrix" values="0 0 0 0 0 0 0 0 0 0 0 0 0 0 0 0 0 0 127 0" result="hardAlpha"/>
<feOffset dy="2"/>
<feGaussianBlur stdDeviation="2.5"/>
<feComposite in2="hardAlpha" operator="out"/>
<feColorMatrix type="matrix" values="0 0 0 0 0 0 0 0 0 0 0 0 0 0 0 0 0 0 0.25 0"/>
<feBlend mode="normal" in2="BackgroundImageFix" result="effect1_dropShadow_14_2"/>
<feBlend mode="normal" in="SourceGraphic" in2="effect1_dropShadow_14_2" result="shape"/>
</filter>
<filter id="filter13_d_14_2" x="165" y="401" width="40" height="40" filterUnits="userSpaceOnUse" color-interpolation-filters="sRGB">
<feFlood flood-opacity="0" result="BackgroundImageFix"/>
<feColorMatrix in="SourceAlpha" type="matrix" values="0 0 0 0 0 0 0 0 0 0 0 0 0 0 0 0 0 0 127 0" result="hardAlpha"/>
<feOffset dy="2"/>
<feGaussianBlur stdDeviation="2.5"/>
<feComposite in2="hardAlpha" operator="out"/>
<feColorMatrix type="matrix" values="0 0 0 0 0 0 0 0 0 0 0 0 0 0 0 0 0 0 0.25 0"/>
<feBlend mode="normal" in2="BackgroundImageFix" result="effect1_dropShadow_14_2"/>
<feBlend mode="normal" in="SourceGraphic" in2="effect1_dropShadow_14_2" result="shape"/>
</filter>
<filter id="filter14_d_14_2" x="98" y="401" width="40" height="40" filterUnits="userSpaceOnUse" color-interpolation-filters="sRGB">
<feFlood flood-opacity="0" result="BackgroundImageFix"/>
<feColorMatrix in="SourceAlpha" type="matrix" values="0 0 0 0 0 0 0 0 0 0 0 0 0 0 0 0 0 0 127 0" result="hardAlpha"/>
<feOffset dy="2"/>
<feGaussianBlur stdDeviation="2.5"/>
<feComposite in2="hardAlpha" operator="out"/>
<feColorMatrix type="matrix" values="0 0 0 0 0 0 0 0 0 0 0 0 0 0 0 0 0 0 0.25 0"/>
<feBlend mode="normal" in2="BackgroundImageFix" result="effect1_dropShadow_14_2"/>
<feBlend mode="normal" in="SourceGraphic" in2="effect1_dropShadow_14_2" result="shape"/>
</filter>
<filter id="filter15_d_14_2" x="0" y="0" width="637" height="465" filterUnits="userSpaceOnUse" color-interpolation-filters="sRGB">
<feFlood flood-opacity="0" result="BackgroundImageFix"/>
<feColorMatrix in="SourceAlpha" type="matrix" values="0 0 0 0 0 0 0 0 0 0 0 0 0 0 0 0 0 0 127 0" result="hardAlpha"/>
<feOffset dy="4"/>
<feGaussianBlur stdDeviation="2"/>
<feComposite in2="hardAlpha" operator="out"/>
<feColorMatrix type="matrix" values="0 0 0 0 0 0 0 0 0 0 0 0 0 0 0 0 0 0 0.25 0"/>
<feBlend mode="normal" in2="BackgroundImageFix" result="effect1_dropShadow_14_2"/>
<feBlend mode="normal" in="SourceGraphic" in2="effect1_dropShadow_14_2" result="shape"/>
</filter>
<clipPath id="clip0_14_2">
<rect width="629" height="457" fill="white" transform="translate(4)"/>
</clipPath>
</defs>
</svg>
