<svg width="40" height="40" viewBox="0 0 40 40" fill="none" xmlns="http://www.w3.org/2000/svg">
<path fill-rule="evenodd" clip-rule="evenodd" d="M18.2917 24.1834C18.4542 24.0209 18.5831 23.8279 18.6711 23.6156C18.759 23.4033 18.8043 23.1757 18.8043 22.9459C18.8043 22.716 18.759 22.4885 18.6711 22.2761C18.5831 22.0638 18.4542 21.8709 18.2917 21.7084C17.8351 21.2518 17.4729 20.7098 17.2258 20.1133C16.9787 19.5167 16.8516 18.8774 16.8516 18.2317C16.8516 17.586 16.9787 16.9467 17.2258 16.3501C17.4729 15.7536 17.8351 15.2116 18.2917 14.755L24.185 8.86336C24.6416 8.40679 25.1836 8.04463 25.7801 7.79754C26.3766 7.55045 27.016 7.42327 27.6617 7.42327C28.3073 7.42327 28.9467 7.55045 29.5432 7.79754C30.1398 8.04463 30.6818 8.40679 31.1383 8.86336C31.5949 9.31992 31.9571 9.86194 32.2042 10.4585C32.4512 11.055 32.5784 11.6943 32.5784 12.34C32.5784 12.9857 32.4512 13.6251 32.2042 14.2216C31.9571 14.8181 31.5949 15.3601 31.1383 15.8167L29.3167 17.6367C29.1542 17.7992 29.0252 17.9921 28.9373 18.2045C28.8493 18.4168 28.8041 18.6444 28.8041 18.8742C28.8041 19.104 28.8493 19.3316 28.9373 19.5439C29.0252 19.7563 29.1542 19.9492 29.3167 20.1117C29.6449 20.4399 30.09 20.6243 30.5542 20.6243C30.784 20.6243 31.0116 20.579 31.2239 20.4911C31.4362 20.4031 31.6292 20.2742 31.7917 20.1117L33.6133 18.2917C35.1918 16.7132 36.0786 14.5723 36.0786 12.34C36.0786 10.1077 35.1918 7.96684 33.6133 6.38836C32.0349 4.80988 29.894 3.9231 27.6617 3.9231C25.4294 3.9231 23.2885 4.80988 21.71 6.38836L15.8167 12.28C15.0351 13.0616 14.415 13.9895 13.992 15.0106C13.569 16.0318 13.3513 17.1264 13.3513 18.2317C13.3513 19.337 13.569 20.4315 13.992 21.4527C14.415 22.4739 15.0351 23.4018 15.8167 24.1834C16.5 24.8667 17.6083 24.8667 18.2917 24.1834ZM21.7083 15.8167C21.5458 15.9792 21.4169 16.1721 21.3289 16.3845C21.241 16.5968 21.1957 16.8244 21.1957 17.0542C21.1957 17.284 21.241 17.5116 21.3289 17.7239C21.4169 17.9363 21.5458 18.1292 21.7083 18.2917C22.1649 18.7482 22.5271 19.2903 22.7742 19.8868C23.0213 20.4833 23.1484 21.1227 23.1484 21.7684C23.1484 22.414 23.0213 23.0534 22.7742 23.6499C22.5271 24.2464 22.1649 24.7885 21.7083 25.245L15.875 31.0784C15.4209 31.5456 14.8784 31.918 14.279 32.1737C13.6797 32.4295 13.0355 32.5635 12.384 32.5681C11.7324 32.5727 11.0864 32.4478 10.4835 32.2005C9.88063 31.9532 9.33292 31.5886 8.87222 31.1278C8.41152 30.667 8.04702 30.1192 7.79989 29.5163C7.55277 28.9133 7.42796 28.2673 7.43271 27.6157C7.43747 26.9641 7.5717 26.32 7.8276 25.7207C8.08349 25.1215 8.45596 24.5791 8.92334 24.125L10.6317 22.4167C10.9599 22.0885 11.1443 21.6433 11.1443 21.1792C11.1443 20.715 10.9599 20.2699 10.6317 19.9417C10.3035 19.6135 9.85832 19.4291 9.39417 19.4291C8.93002 19.4291 8.48487 19.6135 8.15667 19.9417L6.45 21.65C4.87152 23.2285 3.98474 25.3694 3.98474 27.6017C3.98474 29.834 4.87152 31.9749 6.45 33.5534C8.02848 35.1318 10.1694 36.0186 12.4017 36.0186C14.634 36.0186 16.7749 35.1318 18.3533 33.5534L24.1867 27.72C24.9683 26.9385 25.5883 26.0106 26.0113 24.9894C26.4343 23.9682 26.652 22.8737 26.652 21.7684C26.652 20.663 26.4343 19.5685 26.0113 18.5473C25.5883 17.5261 24.9683 16.5983 24.1867 15.8167C24.0242 15.6542 23.8312 15.5252 23.6189 15.4373C23.4066 15.3493 23.179 15.3041 22.9492 15.3041C22.7193 15.3041 22.4918 15.3493 22.2794 15.4373C22.0671 15.5252 21.8742 15.6542 21.7117 15.8167H21.7083Z" fill="#F5C44B" fill-opacity="0.5"/>
</svg>
