<svg width="52" height="52" viewBox="0 0 52 52" fill="none" xmlns="http://www.w3.org/2000/svg">
<path d="M1.5 1.5H32C42.2173 1.5 50.5 9.78273 50.5 20V50.5H1.5V1.5Z" fill="#868686" stroke="#A1D7E3" stroke-width="3"/>
<path d="M31.704 33.828C31.8907 32.8387 32.0587 31.98 32.208 31.252C32.3573 30.5053 32.488 29.8147 32.6 29.18C32.712 28.5453 32.8147 27.92 32.908 27.304C33.02 26.6693 33.132 25.9693 33.244 25.204C33.3747 24.42 33.5147 23.5333 33.664 22.544C33.832 21.536 34.028 20.332 34.252 18.932C34.308 18.5773 34.4013 18.3533 34.532 18.26C34.6627 18.148 34.9893 18.092 35.512 18.092C35.7173 18.092 36.0253 18.1107 36.436 18.148C36.8467 18.1667 37.2573 18.2507 37.668 18.4C38.0787 18.5307 38.4333 18.7453 38.732 19.044C39.0493 19.324 39.208 19.7253 39.208 20.248C39.208 20.5467 39.152 21.0133 39.04 21.648C38.928 22.264 38.7693 22.9827 38.564 23.804C38.3773 24.6067 38.1533 25.484 37.892 26.436C37.6493 27.388 37.3973 28.3493 37.136 29.32C36.8747 30.2907 36.604 31.2333 36.324 32.148C36.0627 33.0627 35.8107 33.8933 35.568 34.64C35.344 35.368 35.1387 35.984 34.952 36.488C34.7653 36.992 34.6347 37.3187 34.56 37.468C34.448 37.6733 34.2893 37.8133 34.084 37.888C33.8787 37.9627 33.6733 38 33.468 38H30.808C30.3227 38 29.912 37.9067 29.576 37.72C29.2587 37.5333 28.988 37.2907 28.764 36.992C28.5587 36.6933 28.3907 36.3573 28.26 35.984C28.148 35.6107 28.0733 35.228 28.036 34.836L26.636 22.264C26.524 23.0853 26.3933 24.0093 26.244 25.036C26.1133 26.0627 25.964 27.108 25.796 28.172C25.6467 29.236 25.4973 30.2813 25.348 31.308C25.1987 32.3347 25.0493 33.2773 24.9 34.136C24.7507 34.976 24.6107 35.6947 24.48 36.292C24.3493 36.8893 24.2373 37.2813 24.144 37.468C24.0507 37.6733 23.9013 37.8133 23.696 37.888C23.4907 37.9627 23.276 38 23.052 38H20.392C19.9253 38 19.5333 37.916 19.216 37.748C18.9173 37.5613 18.6653 37.3187 18.46 37.02C18.2547 36.7213 18.0867 36.3853 17.956 36.012C17.8253 35.62 17.7133 35.228 17.62 34.836C16.8547 31.7933 16.2293 29.292 15.744 27.332C15.2773 25.372 14.904 23.804 14.624 22.628C14.344 21.4333 14.148 20.5653 14.036 20.024C13.9427 19.464 13.896 19.0627 13.896 18.82C13.896 18.5027 13.9893 18.2973 14.176 18.204C14.3813 18.1107 14.8013 18.064 15.436 18.064C16.22 18.064 16.8733 18.12 17.396 18.232C17.9373 18.344 18.376 18.5213 18.712 18.764C19.048 18.988 19.3 19.296 19.468 19.688C19.6547 20.0613 19.776 20.5187 19.832 21.06C19.832 21.1347 19.8413 21.2467 19.86 21.396C19.8787 21.5267 19.8973 21.7507 19.916 22.068C19.9533 22.3853 20 22.824 20.056 23.384C20.1307 23.9253 20.2147 24.6533 20.308 25.568C20.42 26.4827 20.5507 27.6213 20.7 28.984C20.868 30.328 21.064 31.9427 21.288 33.828C21.4933 32.6893 21.652 31.7747 21.764 31.084C21.8947 30.3747 22.0067 29.7587 22.1 29.236C22.1933 28.6947 22.2773 28.1813 22.352 27.696C22.4267 27.192 22.5107 26.576 22.604 25.848C22.716 25.1013 22.8373 24.168 22.968 23.048C23.1173 21.928 23.304 20.472 23.528 18.68C23.5467 18.5493 23.6213 18.4467 23.752 18.372C23.9013 18.2973 24.0787 18.2413 24.284 18.204C24.4893 18.1667 24.7133 18.148 24.956 18.148C25.2173 18.1293 25.46 18.12 25.684 18.12C26.4307 18.12 27.0653 18.1667 27.588 18.26C28.1107 18.3347 28.54 18.4747 28.876 18.68C29.2307 18.8853 29.5107 19.1653 29.716 19.52C29.9213 19.856 30.0893 20.276 30.22 20.78C30.276 21.0227 30.3413 21.3587 30.416 21.788C30.4907 22.1987 30.5747 22.8613 30.668 23.776C30.78 24.6907 30.9107 25.9507 31.06 27.556C31.228 29.1427 31.4427 31.2333 31.704 33.828Z" fill="#F5C44B"/>
</svg>
